<svg width="431.985" height="431.985" viewBox="0 0 431.985 431.985" xmlns="http://www.w3.org/2000/svg" xmlns:xlink="http://www.w3.org/1999/xlink" id="Capa_1" overflow="hidden"><g><path d="M423.257 51.829C422.449 49.784 420.587 48.345 418.404 48.078 416.227 47.812 414.069 48.76 412.792 50.55 405.211 61.179 395.263 64.722 383.739 68.825 374.447 72.135 364.838 75.555 354.453 83.011 339.766 93.555 333.048 107.928 336.398 121.551L336.04 122.01C329.907 113.113 323.234 104.884 316.192 97.536 283.245 63.158 237.208 42.49 189.881 40.833 187.796 40.76 185.677 40.723 183.583 40.723 130.737 40.723 80.155 64.347 44.808 105.536 9.646 146.512-5.939 199.853 2.051 251.882 2.719 256.231 3.555 260.625 4.538 264.945 17.534 322.147 50.727 365.662 95.607 384.328 106.67 388.93 117.829 391.262 128.77 391.262 155.953 391.262 179.696 376.723 193.913 351.373 199.317 341.727 202.804 331.752 204.273 321.722 205.139 315.802 204.547 309.887 203.973 304.155 203.382 298.255 202.824 292.679 203.717 287.065 205.764 274.196 214.753 266.512 227.764 266.512 231.465 266.512 235.247 267.121 239.024 268.324 234.602 276.434 230.586 284.178 227.077 291.356 219.64 306.568 214.51 319.166 211.825 328.796 210.17 334.735 205.773 350.518 216.495 357.96 219.9 360.323 224.217 361.157 228.71 360.321 232.759 359.569 245.079 357.28 280.088 317.425 289.484 306.73 299.609 294.353 310.192 280.631 337.36 271.481 358.502 248.71 364.095 222.544 365.495 216.003 366.079 209.003 365.83 201.732 376.002 186.012 384.924 171.344 393.902 155.576 394.074 155.272 394.244 154.948 394.412 154.616 407.443 151.047 418.666 140.906 425.254 126.725 434.872 106.028 434.163 79.428 423.257 51.829ZM276.385 149.834C271.672 157.319 263.571 161.788 254.712 161.788 249.902 161.788 245.197 160.427 241.107 157.851 235.325 154.209 231.304 148.534 229.791 141.871 228.278 135.208 229.446 128.353 233.089 122.57 237.803 115.085 245.905 110.616 254.764 110.616 259.575 110.616 264.279 111.977 268.368 114.554 274.15 118.194 278.17 123.869 279.684 130.533 281.197 137.197 280.026 144.051 276.385 149.834ZM309.592 196.187C322.526 177.13 336.204 158.187 349.196 141.337 351.302 143.239 353.657 145.097 356.208 146.867 360.435 149.8 364.856 152.068 369.372 153.621 358.403 172.379 346.609 190.963 332.329 211.996 308.866 246.567 284.47 278.68 263.634 302.42 251.996 315.68 241.811 325.918 233.963 332.259 236.992 322.569 242.781 309.27 250.838 293.513 265.245 265.336 286.111 230.772 309.592 196.187ZM82.506 196.023C77.695 196.023 72.99 194.662 68.899 192.085 63.117 188.444 59.098 182.771 57.584 176.106 56.07 169.442 57.242 162.587 60.885 156.804 65.596 149.32 73.698 144.851 82.556 144.851 87.368 144.851 92.073 146.212 96.163 148.789 108.099 156.307 111.695 172.134 104.182 184.068 99.466 191.554 91.363 196.023 82.506 196.023ZM55.688 252.358C60.401 244.872 68.502 240.403 77.361 240.403 82.171 240.403 86.875 241.765 90.967 244.341 96.749 247.982 100.768 253.656 102.282 260.32 103.797 266.982 102.625 273.836 98.981 279.621 94.27 287.104 86.168 291.574 77.31 291.574 72.499 291.574 67.793 290.213 63.701 287.636 57.919 283.994 53.901 278.321 52.388 271.657 50.876 264.995 52.049 258.14 55.688 252.358ZM137.62 100.414C142.333 92.929 150.435 88.46 159.293 88.46 164.102 88.46 168.807 89.821 172.897 92.397 184.834 99.913 188.43 115.741 180.916 127.677 176.201 135.163 168.099 139.632 159.241 139.632 154.431 139.632 149.726 138.271 145.636 135.694 139.855 132.054 135.837 126.38 134.323 119.715 132.807 113.052 133.979 106.198 137.62 100.414Z" fill="#FFFFFF"/></g><g></g><g></g><g></g><g></g><g></g><g></g><g></g><g></g><g></g><g></g><g></g><g></g><g></g><g></g><g></g></svg>