<svg width="512" height="512" viewBox="0 0 24 24" xmlns="http://www.w3.org/2000/svg" xmlns:xlink="http://www.w3.org/1999/xlink" id="light" overflow="hidden"><g><path d="M13.5 24 10.5 24C9.8 24 9 23.4 9 22.2L9 20.1C9 19.1 8.5 18.2 7.7 17.5 5.9 16.1 5 14.1 5 11.9 5.1 8.1 8.2 5.1 11.9 5 13.8 5 15.6 5.7 16.9 7 18.2 8.3 19 10.1 19 12 19 14.1 18.1 16.1 16.4 17.4 15.5 18.1 15 19.2 15 20.2L15 22.5C15 23.3 14.3 24 13.5 24ZM12 6C8.8 6 6.1 8.7 6 11.9 6 13.8 6.8 15.6 8.3 16.7 9.4 17.6 10 18.8 10 20.1L10 22.2C10 22.4 10 23 10.5 23L13.5 23C13.8 23 14 22.8 14 22.5L14 20.2C14 18.9 14.7 17.5 15.8 16.6 17.2 15.5 18 13.8 18 12 18 10.4 17.4 8.9 16.2 7.7 15.1 6.6 13.6 6 12 6Z" fill="#FFFFFF"/></g><g><path d="M14.5 21 9.5 21C9.2 21 9 20.8 9 20.5 9 20.2 9.2 20 9.5 20L14.5 20C14.8 20 15 20.2 15 20.5 15 20.8 14.8 21 14.5 21Z" fill="#FFFFFF"/></g><g><path d="M12 3C11.7 3 11.5 2.8 11.5 2.5L11.5 0.5C11.5 0.2 11.7 0 12 0 12.3 0 12.5 0.2 12.5 0.5L12.5 2.5C12.5 2.8 12.3 3 12 3Z" fill="#FFFFFF"/></g><g><path d="M18.7 5.8C18.6 5.8 18.4 5.8 18.3 5.7 18.1 5.5 18.1 5.2 18.3 5L19.7 3.6C19.9 3.4 20.2 3.4 20.4 3.6 20.6 3.8 20.6 4.1 20.4 4.3L19 5.7C19 5.7 18.8 5.8 18.7 5.8Z" fill="#FFFFFF"/></g><g><path d="M23.5 12.5 21.5 12.5C21.2 12.5 21 12.3 21 12 21 11.7 21.2 11.5 21.5 11.5L23.5 11.5C23.8 11.5 24 11.7 24 12 24 12.3 23.8 12.5 23.5 12.5Z" fill="#FFFFFF"/></g><g><path d="M20.1 20.6C20 20.6 19.8 20.6 19.7 20.5L18.3 19.1C18.1 18.9 18.1 18.6 18.3 18.4 18.5 18.2 18.8 18.2 19 18.4L20.4 19.8C20.6 20 20.6 20.3 20.4 20.5 20.4 20.6 20.3 20.6 20.1 20.6Z" fill="#FFFFFF"/></g><g><path d="M3.9 20.6C3.8 20.6 3.6 20.6 3.5 20.5 3.3 20.3 3.3 20 3.5 19.8L4.9 18.4C5.1 18.2 5.4 18.2 5.6 18.4 5.8 18.6 5.8 18.9 5.6 19.1L4.2 20.5C4.1 20.6 4 20.6 3.9 20.6Z" fill="#FFFFFF"/></g><g><path d="M2.5 12.5 0.5 12.5C0.2 12.5 0 12.3 0 12 0 11.7 0.2 11.5 0.5 11.5L2.5 11.5C2.8 11.5 3 11.7 3 12 3 12.3 2.8 12.5 2.5 12.5Z" fill="#FFFFFF"/></g><g><path d="M5.3 5.8C5.2 5.8 5 5.8 4.9 5.7L3.5 4.2C3.3 4 3.3 3.7 3.5 3.5 3.7 3.3 4 3.3 4.2 3.5L5.6 4.9C5.8 5.1 5.8 5.4 5.6 5.6 5.5 5.7 5.4 5.8 5.3 5.8Z" fill="#FFFFFF"/></g><g><path d="M16 12.5C15.7 12.5 15.5 12.3 15.5 12 15.5 10.1 13.9 8.5 12 8.5 11.7 8.5 11.5 8.3 11.5 8 11.5 7.7 11.7 7.5 12 7.5 14.5 7.5 16.5 9.5 16.5 12 16.5 12.3 16.3 12.5 16 12.5Z" fill="#FFFFFF"/></g></svg>