<svg viewBox="0 0 512 512" xmlns="http://www.w3.org/2000/svg" xmlns:xlink="http://www.w3.org/1999/xlink" id="Capa_1" overflow="hidden"><g><g><path d="M132.233 31.622C103.658 47.39 78.404 68.445 57.836 93.512 146.4 109.777 233.861 156.429 266.716 238.784 290.203 236.418 311.092 230.619 329.386 221.86 314.392 120.242 231.035 43.448 132.233 31.622Z" fill="#FFFFFF"/></g></g><g><g><path d="M257 0C230.766 0 205.454 3.999 181.619 11.389 275.95 40.359 339.407 117.045 356.836 205.532 400.256 174.093 426.698 126.002 442.575 80.652 396.032 31.141 330.158 0 257 0Z" fill="#FFFFFF"/></g></g><g><g><path d="M464.915 107.878C426.525 204.182 357.604 261.073 266.852 269.088 250.332 301.578 242.204 332.5 242.06 361.185 365.427 368.402 467.7 287.63 500.646 179.747 492.597 153.735 480.34 129.611 464.915 107.878Z" fill="#FFFFFF"/></g></g><g><g><path d="M510.956 234.375C462.352 329.393 362.924 396.622 244.159 391.302 250.412 435.372 270.658 476.137 301.301 507.885 420.826 486.823 512 380.475 512 255 512 248.038 511.506 241.198 510.956 234.375Z" fill="#FFFFFF"/></g></g><g><g><path d="M212 362C212 327.562 221.141 291.65 240.696 253.755 232.33 230.991 219.066 211.434 202.597 194.625 108.552 268.333 94.097 405.874 170.268 496.856 197.108 506.481 226.888 512 257 512 259.617 512 262.153 511.687 264.749 511.608 231.308 469.662 212 417.139 212 362Z" fill="#FFFFFF"/></g></g><g><g><path d="M179.913 174.684C141.223 145.574 89.109 128.096 38.544 120.853 14.268 159.88 0 205.752 0 255 0 344.388 46.326 425.041 116.131 470.585 65.515 370.913 91.58 247.19 179.913 174.684Z" fill="#FFFFFF"/></g></g><g></g><g></g><g></g><g></g><g></g><g></g><g></g><g></g><g></g><g></g><g></g><g></g><g></g><g></g><g></g></svg>