<svg width="201" height="73" viewBox="0 0 201 73" fill="none" xmlns="http://www.w3.org/2000/svg">
<g filter="url(#filter0_d)">
<path d="M23.904 48.308C21.6453 48.308 19.6213 47.9413 17.832 47.208C16.0427 46.4747 14.6053 45.3893 13.52 43.952C12.464 42.5147 11.9067 40.784 11.848 38.76H19.856C19.9733 39.904 20.3693 40.784 21.044 41.4C21.7187 41.9867 22.5987 42.28 23.684 42.28C24.7987 42.28 25.6787 42.0307 26.324 41.532C26.9693 41.004 27.292 40.2853 27.292 39.376C27.292 38.6133 27.028 37.9827 26.5 37.484C26.0013 36.9853 25.3707 36.5747 24.608 36.252C23.8747 35.9293 22.8187 35.5627 21.44 35.152C19.4453 34.536 17.8173 33.92 16.556 33.304C15.2947 32.688 14.2093 31.7787 13.3 30.576C12.3907 29.3733 11.936 27.804 11.936 25.868C11.936 22.9933 12.9773 20.7493 15.06 19.136C17.1427 17.4933 19.856 16.672 23.2 16.672C26.6027 16.672 29.3453 17.4933 31.428 19.136C33.5107 20.7493 34.6253 23.008 34.772 25.912H26.632C26.5733 24.9147 26.2067 24.1373 25.532 23.58C24.8573 22.9933 23.992 22.7 22.936 22.7C22.0267 22.7 21.2933 22.9493 20.736 23.448C20.1787 23.9173 19.9 24.6067 19.9 25.516C19.9 26.5133 20.3693 27.2907 21.308 27.848C22.2467 28.4053 23.7133 29.0067 25.708 29.652C27.7027 30.3267 29.316 30.972 30.548 31.588C31.8093 32.204 32.8947 33.0987 33.804 34.272C34.7133 35.4453 35.168 36.956 35.168 38.804C35.168 40.564 34.7133 42.1627 33.804 43.6C32.924 45.0373 31.6333 46.1813 29.932 47.032C28.2307 47.8827 26.2213 48.308 23.904 48.308ZM77.3668 29.432V35.68H58.0068V29.432H77.3668ZM91.3622 17.112V35.592C91.3622 37.44 91.8169 38.8627 92.7262 39.86C93.6355 40.8573 94.9702 41.356 96.7302 41.356C98.4902 41.356 99.8395 40.8573 100.778 39.86C101.717 38.8627 102.186 37.44 102.186 35.592V17.112H109.71V35.548C109.71 38.3053 109.124 40.6373 107.95 42.544C106.777 44.4507 105.193 45.888 103.198 46.856C101.233 47.824 99.0329 48.308 96.5982 48.308C94.1635 48.308 91.9782 47.8387 90.0422 46.9C88.1355 45.932 86.6249 44.4947 85.5102 42.588C84.3955 40.652 83.8382 38.3053 83.8382 35.548V17.112H91.3622ZM142.226 48L131.842 34.36V48H124.318V17.112H131.842V30.664L142.138 17.112H150.982L139.014 32.248L151.422 48H142.226Z" fill="white"/>
</g>
<g clip-path="url(#clip0)" filter="url(#filter1_d)">
<path d="M48.0157 56.8511L49.3179 53.572L49.3191 53.5691L51.6871 47.6067L51.6882 47.6039L51.6911 47.5965C51.6928 47.5921 51.694 47.5876 51.6956 47.5832C51.6996 47.5724 51.7035 47.5617 51.7068 47.5506C51.7086 47.5445 51.7099 47.5382 51.7115 47.5321C51.7142 47.5216 51.717 47.5112 51.7191 47.5005C51.7207 47.4923 51.7216 47.484 51.7228 47.4756C51.724 47.4669 51.7256 47.4582 51.7265 47.4492C51.7281 47.4317 51.729 47.4141 51.7289 47.3964L51.6211 21.4924L51.6211 21.4914L51.6059 17.843C51.6047 17.5455 51.3625 17.3033 51.065 17.3021C50.7676 17.3009 50.5274 17.541 50.5286 17.8385L50.5318 18.5936L41.3495 18.5554L41.3283 13.4466C41.3273 13.2206 41.4144 13.0086 41.5736 12.8494C41.7327 12.6904 41.9447 12.6032 42.1708 12.6041L49.6611 12.6353C50.1276 12.6373 50.5087 13.0183 50.5106 13.4848L50.5193 15.5691C50.5205 15.8666 50.7627 16.1087 51.0601 16.1099C51.3576 16.1111 51.5978 15.871 51.5965 15.5736L51.5878 13.4893C51.5857 12.9756 51.3836 12.4918 51.0189 12.127C50.6541 11.7623 50.1703 11.5602 49.6566 11.5581L42.1663 11.527C41.6526 11.5248 41.1704 11.7228 40.8087 12.0846C40.447 12.4463 40.249 12.9284 40.2511 13.4421L40.3129 28.3135C40.3135 28.4622 40.3744 28.5971 40.4722 28.695C40.5701 28.7928 40.705 28.8537 40.8537 28.8543C41.1512 28.8555 41.3914 28.6154 41.3901 28.3179L41.3736 24.3431L42.9992 24.3498L43.0927 46.8218L41.4671 46.8151L41.4005 30.7986C41.3993 30.5011 41.1571 30.259 40.8596 30.2577C40.5621 30.2565 40.322 30.4967 40.3232 30.7941L40.3921 47.3493C40.3922 47.367 40.3932 47.3846 40.395 47.4022C40.3959 47.4108 40.3976 47.4193 40.3989 47.4278C40.4002 47.4364 40.4012 47.4451 40.4029 47.4536C40.405 47.464 40.4078 47.4742 40.4105 47.4843C40.4122 47.4908 40.4136 47.4974 40.4155 47.5039C40.4188 47.5147 40.4228 47.5253 40.4267 47.5358C40.4284 47.5404 40.4297 47.5451 40.4316 47.5498L40.4347 47.5576L40.4357 47.5598L42.8538 53.5434L42.8543 53.5447L44.1843 56.8354C44.2265 56.9398 44.2765 57.0406 44.3328 57.1351C44.421 57.2828 44.526 57.4179 44.6455 57.5373C44.6745 57.5663 44.7044 57.5944 44.735 57.6216C44.7414 57.6272 44.7478 57.6327 44.7546 57.6383C44.8891 57.7545 45.04 57.8532 45.2029 57.9316C45.2373 57.9482 45.2721 57.9637 45.3071 57.9783C45.3554 57.9983 45.4054 58.0168 45.4555 58.0334C46.0354 58.224 46.6864 58.15 47.1973 57.8354C47.2538 57.8006 47.3032 57.7672 47.3484 57.7333C47.6438 57.5115 47.8745 57.2065 48.0157 56.8511ZM41.354 19.6326L50.5364 19.6708L50.5417 20.9488L41.3594 20.9107L41.354 19.6326ZM41.3692 23.2659L41.3638 21.9879L50.5461 22.0261L50.5514 23.3041L41.3692 23.2659ZM44.0764 24.3543L47.8532 24.3701L47.9174 39.8238C47.918 39.9725 47.9789 40.1075 48.0767 40.2053C48.1746 40.3032 48.3095 40.3641 48.4582 40.3646C48.7557 40.3659 48.9959 40.1257 48.9946 39.8283L48.9303 24.3746L50.5559 24.3814L50.6493 46.8534L49.0238 46.8466L49.0039 42.0668C49.0026 41.7694 48.7605 41.5272 48.463 41.5259C48.1655 41.5247 47.9254 41.7649 47.9266 42.0623L47.9465 46.8421L44.1699 46.8264L44.0764 24.3543ZM41.729 47.8934L50.3964 47.9295L48.4545 52.8193L43.7117 52.7996L41.729 47.8934ZM46.6973 56.8697C46.6783 56.8839 46.6552 56.8994 46.6268 56.9169C46.3814 57.068 46.0664 57.1029 45.7841 57.0101C45.7602 57.0023 45.7366 56.9935 45.7132 56.9837C45.6967 56.9769 45.6803 56.9696 45.664 56.9617C45.5865 56.9245 45.5156 56.8781 45.4552 56.8257C45.4525 56.8233 45.4469 56.8187 45.4423 56.8147C45.3701 56.7501 45.3078 56.6742 45.2568 56.5887C45.2289 56.542 45.2039 56.4914 45.1825 56.4386L44.1479 53.8785L48.0275 53.8946L47.0141 56.4462C46.9443 56.6218 46.8377 56.7642 46.6973 56.8697Z" fill="#FFAE00" stroke="#FFAE00"/>
</g>
<g filter="url(#filter2_d)">
<path fill-rule="evenodd" clip-rule="evenodd" d="M139.598 43.5085C137.908 46.2519 134.832 48.2519 131.163 48.6045C125.246 49.1734 119.981 45.2442 119.449 39.8563C119.072 36.0438 121.09 32.5324 124.42 30.581L124.146 27.8035C123.979 27.8831 123.812 27.963 123.651 28.0467C123.072 28.3477 122.521 28.687 122.005 29.0637L117.337 26.6723L114.645 29.5347L118.099 33.3742C117.432 34.5561 116.975 35.8405 116.755 37.1979L111.281 38.6648L111.489 42.4346L117.259 42.8022C117.717 44.0985 118.403 45.2869 119.28 46.375L116.29 51.0703L119.502 53.5152L124.157 49.9775C125.458 50.5661 126.88 50.9611 128.358 51.1188L129.945 56.3736L134.172 55.9672L134.627 50.475C136.028 50.0086 137.32 49.3437 138.487 48.5316L143.578 51.155L146.254 48.1395L144.936 46.7713L143.244 47.4247L139.598 43.5085Z" fill="#FFAE00"/>
</g>
<g filter="url(#filter3_d)">
<path d="M192.708 17.112V48H185.184V29.476L178.276 48H172.204L165.252 29.432V48H157.728V17.112H166.616L175.284 38.496L183.864 17.112H192.708Z" fill="white"/>
</g>
<defs>
<filter id="filter0_d" x="7.848" y="16.672" width="147.574" height="39.636" filterUnits="userSpaceOnUse" color-interpolation-filters="sRGB">
<feFlood flood-opacity="0" result="BackgroundImageFix"/>
<feColorMatrix in="SourceAlpha" type="matrix" values="0 0 0 0 0 0 0 0 0 0 0 0 0 0 0 0 0 0 127 0"/>
<feOffset dy="4"/>
<feGaussianBlur stdDeviation="2"/>
<feColorMatrix type="matrix" values="0 0 0 0 0 0 0 0 0 0 0 0 0 0 0 0 0 0 0.25 0"/>
<feBlend mode="normal" in2="BackgroundImageFix" result="effect1_dropShadow"/>
<feBlend mode="normal" in="SourceGraphic" in2="effect1_dropShadow" result="shape"/>
</filter>
<filter id="filter1_d" x="16" y="7" width="60" height="60" filterUnits="userSpaceOnUse" color-interpolation-filters="sRGB">
<feFlood flood-opacity="0" result="BackgroundImageFix"/>
<feColorMatrix in="SourceAlpha" type="matrix" values="0 0 0 0 0 0 0 0 0 0 0 0 0 0 0 0 0 0 127 0"/>
<feOffset dy="4"/>
<feGaussianBlur stdDeviation="2"/>
<feColorMatrix type="matrix" values="0 0 0 0 0 0 0 0 0 0 0 0 0 0 0 0 0 0 0.25 0"/>
<feBlend mode="normal" in2="BackgroundImageFix" result="effect1_dropShadow"/>
<feBlend mode="normal" in="SourceGraphic" in2="effect1_dropShadow" result="shape"/>
</filter>
<filter id="filter2_d" x="107.281" y="26.6723" width="42.9736" height="37.7013" filterUnits="userSpaceOnUse" color-interpolation-filters="sRGB">
<feFlood flood-opacity="0" result="BackgroundImageFix"/>
<feColorMatrix in="SourceAlpha" type="matrix" values="0 0 0 0 0 0 0 0 0 0 0 0 0 0 0 0 0 0 127 0"/>
<feOffset dy="4"/>
<feGaussianBlur stdDeviation="2"/>
<feColorMatrix type="matrix" values="0 0 0 0 0 0 0 0 0 0 0 0 0 0 0 0 0 0 0.25 0"/>
<feBlend mode="normal" in2="BackgroundImageFix" result="effect1_dropShadow"/>
<feBlend mode="normal" in="SourceGraphic" in2="effect1_dropShadow" result="shape"/>
</filter>
<filter id="filter3_d" x="153.728" y="17.112" width="42.98" height="38.888" filterUnits="userSpaceOnUse" color-interpolation-filters="sRGB">
<feFlood flood-opacity="0" result="BackgroundImageFix"/>
<feColorMatrix in="SourceAlpha" type="matrix" values="0 0 0 0 0 0 0 0 0 0 0 0 0 0 0 0 0 0 127 0"/>
<feOffset dy="4"/>
<feGaussianBlur stdDeviation="2"/>
<feColorMatrix type="matrix" values="0 0 0 0 0 0 0 0 0 0 0 0 0 0 0 0 0 0 0.25 0"/>
<feBlend mode="normal" in2="BackgroundImageFix" result="effect1_dropShadow"/>
<feBlend mode="normal" in="SourceGraphic" in2="effect1_dropShadow" result="shape"/>
</filter>
<clipPath id="clip0">
<rect width="36.9225" height="36.6166" fill="white" transform="translate(45.8918 7) rotate(45)"/>
</clipPath>
</defs>
</svg>
