<svg width="56" height="51" viewBox="0 0 56 51" fill="none" xmlns="http://www.w3.org/2000/svg">
<ellipse cx="28" cy="25.5" rx="28" ry="25.5" fill="#FFD987"/>
<g clip-path="url(#clip0)">
<path d="M42.9707 19.8201C42.9004 18.2261 42.6426 17.1302 42.2734 16.1806C41.8924 15.1726 41.3064 14.2702 40.5386 13.52C39.7884 12.7582 38.88 12.1662 37.8837 11.7912C36.9286 11.4219 35.8385 11.1641 34.2445 11.0939C32.6385 11.0176 32.1287 11 28.0557 11C23.9826 11 23.4728 11.0176 21.8728 11.0879C20.2788 11.1582 19.1829 11.4162 18.2336 11.7852C17.2254 12.1662 16.3229 12.7522 15.5728 13.52C14.8109 14.2702 14.2191 15.1786 13.8439 16.1749C13.4746 17.1302 13.2169 18.2201 13.1466 19.8141C13.0704 21.42 13.0527 21.9299 13.0527 26.0029C13.0527 30.076 13.0704 30.5858 13.1406 32.1858C13.2109 33.7798 13.4689 34.8757 13.8382 35.8253C14.2191 36.8332 14.8109 37.7356 15.5728 38.4858C16.3229 39.2477 17.2313 39.8397 18.2276 40.2147C19.1829 40.584 20.2728 40.8417 21.8671 40.912C23.4668 40.9825 23.9769 40.9999 28.0499 40.9999C32.123 40.9999 32.6328 40.9825 34.2328 40.912C35.8268 40.8417 36.9227 40.584 37.872 40.2147C39.8882 39.4352 41.4822 37.8412 42.2617 35.8253C42.6307 34.8699 42.8887 33.7798 42.959 32.1858C43.0293 30.5858 43.0469 30.076 43.0469 26.0029C43.0469 21.9299 43.041 21.42 42.9707 19.8201ZM40.2691 32.0686C40.2046 33.5337 39.9585 34.3249 39.7533 34.8523C39.2493 36.1593 38.212 37.1965 36.905 37.7006C36.3776 37.9057 35.5807 38.1518 34.1213 38.2162C32.539 38.2867 32.0644 38.3041 28.0616 38.3041C24.0588 38.3041 23.5783 38.2867 22.0017 38.2162C20.5366 38.1518 19.7454 37.9057 19.218 37.7006C18.5676 37.4602 17.9756 37.0793 17.4951 36.5812C16.9969 36.0947 16.616 35.5086 16.3756 34.8583C16.1705 34.3308 15.9244 33.5337 15.8601 32.0745C15.7896 30.4922 15.7722 30.0174 15.7722 26.0146C15.7722 22.0118 15.7896 21.5313 15.8601 19.9549C15.9244 18.4898 16.1705 17.6986 16.3756 17.1712C16.616 16.5206 16.9969 15.9288 17.501 15.448C17.9872 14.9499 18.5733 14.569 19.2239 14.3288C19.7514 14.1237 20.5485 13.8776 22.0077 13.813C23.59 13.7428 24.0648 13.7251 28.0673 13.7251C32.0761 13.7251 32.5506 13.7428 34.1273 13.813C35.5924 13.8776 36.3836 14.1237 36.911 14.3288C37.5614 14.569 38.1534 14.9499 38.6339 15.448C39.132 15.9345 39.513 16.5206 39.7533 17.1712C39.9585 17.6986 40.2046 18.4955 40.2691 19.9549C40.3394 21.5373 40.357 22.0118 40.357 26.0146C40.357 30.0174 40.3394 30.4862 40.2691 32.0686Z" fill="#1E3D59"/>
<path d="M28.0556 18.2964C23.801 18.2964 20.349 21.7481 20.349 26.003C20.349 30.2578 23.801 33.7096 28.0556 33.7096C32.3104 33.7096 35.7622 30.2578 35.7622 26.003C35.7622 21.7481 32.3104 18.2964 28.0556 18.2964ZM28.0556 31.002C25.2954 31.002 23.0565 28.7634 23.0565 26.003C23.0565 23.2426 25.2954 21.0039 28.0556 21.0039C30.816 21.0039 33.0546 23.2426 33.0546 26.003C33.0546 28.7634 30.816 31.002 28.0556 31.002Z" fill="#1E3D59"/>
<path d="M37.8663 17.9916C37.8663 18.9852 37.0607 19.7908 36.067 19.7908C35.0734 19.7908 34.2678 18.9852 34.2678 17.9916C34.2678 16.9979 35.0734 16.1925 36.067 16.1925C37.0607 16.1925 37.8663 16.9979 37.8663 17.9916Z" fill="#1E3D59"/>
</g>
<defs>
<clipPath id="clip0">
<rect width="30" height="30" fill="white" transform="translate(13 11)"/>
</clipPath>
</defs>
</svg>
