<svg width="50" height="50" viewBox="0 0 50 50" fill="none" xmlns="http://www.w3.org/2000/svg">
<circle cx="25" cy="25" r="25" fill="#FFD987"/>
<g clip-path="url(#clip0)">
<path d="M5 23.2334C5 31.73 12.0483 38.88 21.6617 40.2184C22.3067 40.36 22.45 40.5067 22.4533 40.5067C22.5717 40.775 22.27 42.0584 22.14 43.295C21.8117 45.4867 23.2083 46.6317 25.5267 45.6134C27.72 44.6517 36.6817 38.7117 40.7133 33.845C45.1383 28.7517 46.2067 22.6067 43.645 16.9834C35.545 -0.779969 5 4.3417 5 23.2334H5ZM38.8067 32.2267C35.1367 36.6567 26.8867 42.2017 24.66 43.26C24.9467 40.96 25.7917 38.5667 22.1033 37.7584C13.6417 36.5784 7.5 30.47 7.5 23.2334C7.5 7.03503 34.38 2.6817 41.3683 18.02C43.5067 22.7134 42.5817 27.8834 38.8067 32.2267Z" fill="#1E3D59"/>
<path d="M17.6633 25.565H15.6533V18.6633C15.6533 17.9733 15.0933 17.4133 14.4033 17.4133C13.7133 17.4133 13.1533 17.9733 13.1533 18.6633V26.8167C13.1533 27.5067 13.7133 28.0667 14.4033 28.0667H17.6633C19.3167 28.065 19.3167 25.565 17.6633 25.565Z" fill="#1E3D59"/>
<path d="M19.675 18.6634C20.0484 24.9434 18.7567 28.0667 20.925 28.0667C21.615 28.0667 22.175 27.5067 22.175 26.8167V18.6634C22.175 17.01 19.675 17.0084 19.675 18.6634Z" fill="#1E3D59"/>
<path d="M35.5967 19.9133C37.25 19.9133 37.2517 17.4133 35.5967 17.4133H32.3367C31.6467 17.4133 31.0867 17.9733 31.0867 18.6633V26.8167C31.0867 27.5067 31.6467 28.0667 32.3367 28.0667H35.5967C37.25 28.0667 37.2517 25.5667 35.5967 25.5667H33.5867V23.99H35.5967C37.25 23.99 37.2517 21.49 35.5967 21.49H33.5867V19.9133H35.5967Z" fill="#1E3D59"/>
<path d="M27.825 18.6633V22.3033L25.2567 18.0216C24.6033 16.935 22.9333 17.4033 22.9333 18.665V26.8183C22.9333 27.5083 23.4933 28.0683 24.1833 28.0683C24.8733 28.0683 25.4333 27.5083 25.4333 26.8183V23.1783L28.0017 27.46C28.2333 27.8433 28.6433 28.0666 29.075 28.0666C29.185 28.0666 29.2983 28.0516 29.4083 28.0216C29.95 27.8716 30.325 27.3783 30.325 26.8166V18.6633C30.325 17.01 27.825 17.0083 27.825 18.6633Z" fill="#1E3D59"/>
</g>
<defs>
<clipPath id="clip0">
<rect width="40" height="40" fill="white" transform="translate(5 6)"/>
</clipPath>
</defs>
</svg>
