<svg width="50" height="50" viewBox="0 0 50 50" fill="none" xmlns="http://www.w3.org/2000/svg">
<circle cx="25" cy="25" r="25" fill="#FFD987"/>
<g clip-path="url(#clip0)">
<path d="M42 13.6478C40.6984 14.2188 39.3116 14.5972 37.8656 14.7809C39.3531 13.8928 40.4884 12.4972 41.0222 10.815C39.6353 11.6419 38.1041 12.2259 36.4722 12.5519C35.1553 11.1497 33.2784 10.2812 31.2309 10.2812C27.2584 10.2812 24.0603 13.5056 24.0603 17.4584C24.0603 18.0272 24.1084 18.5741 24.2266 19.0947C18.2612 18.8038 12.9828 15.9447 9.43687 11.5894C8.81781 12.6634 8.45469 13.8928 8.45469 15.2162C8.45469 17.7013 9.73438 19.9041 11.6419 21.1794C10.4891 21.1575 9.35812 20.8228 8.4 20.2956C8.4 20.3175 8.4 20.3459 8.4 20.3744C8.4 23.8612 10.8872 26.7575 14.1487 27.4247C13.5647 27.5844 12.9281 27.6609 12.2675 27.6609C11.8081 27.6609 11.3444 27.6347 10.9091 27.5384C11.8387 30.38 14.4769 32.4691 17.6138 32.5369C15.1725 34.4466 12.0728 35.5972 8.71719 35.5972C8.12875 35.5972 7.56437 35.5709 7 35.4987C10.1784 37.5484 13.9453 38.7188 18.0075 38.7188C31.2113 38.7188 38.43 27.7812 38.43 18.3006C38.43 17.9834 38.4191 17.6772 38.4037 17.3731C39.8278 16.3625 41.0244 15.1003 42 13.6478Z" fill="#1E3D59"/>
</g>
<defs>
<clipPath id="clip0">
<rect width="35" height="35" fill="white" transform="translate(7 7)"/>
</clipPath>
</defs>
</svg>
